<?xml version="1.0" encoding="UTF-8"?>
<svg width="516px" height="141px" viewBox="0 0 516 141" version="1.1" xmlns="http://www.w3.org/2000/svg" xmlns:xlink="http://www.w3.org/1999/xlink">
    <title>Group 6</title>
    <g id="Page-1" stroke="none" stroke-width="1" fill="none" fill-rule="evenodd">
        <g id="Artboard-Copy-3" transform="translate(-64.000000, -250.000000)" fill="#FFFFFF" fill-rule="nonzero">
            <g id="Group-6" transform="translate(64.000000, 250.000000)">
                <g id="Group-4" transform="translate(190.447439, 1.382353)">
                    <path d="M67.695349,1.13276114 L67.695349,80.4257547 C67.6914102,80.7252497 67.5716721,81.0110243 67.3617366,81.2227092 C67.1518011,81.434002 66.8682108,81.5547408 66.5712288,81.5586648 L58.3865,81.5586648 C56.5081086,81.560229 54.6592579,81.086682 53.0093143,80.1815331 C51.3593706,79.2763842 49.9611133,77.968642 48.9429456,76.3782612 L11.7973532,18.5319539 L13.0715398,47.424864 L13.0715398,80.4257547 C13.0676011,80.7252497 12.947863,81.0110243 12.7379274,81.2227092 C12.5279919,81.434002 12.2444017,81.5547408 11.9474197,81.5586648 L1.124514,81.5586648 C0.82753202,81.5547408 0.543547923,81.434002 0.333612385,81.2227092 C0.123676846,81.0110243 0.00393875307,80.7252497 0,80.4257547 L0,1.13276114 C0.00393875307,0.833548464 0.123676846,0.547695458 0.333612385,0.336103472 C0.543547923,0.124511878 0.82753202,0.00391174081 1.124514,0 L9.26394722,0 C11.1403692,0.00100550716 12.9868566,0.473958554 14.6360125,1.37595964 C16.2851684,2.27796073 17.6846074,3.58047355 18.7078954,5.16538578 L55.853094,62.9209822 L54.6990394,34.1337969 L54.6990394,1.13276114 C54.6990394,0.832333236 54.8175958,0.544210497 55.0283191,0.331776476 C55.2390424,0.119343238 55.5249959,0 55.8231595,0 L66.6460652,0 C66.9296554,0.0226249989 67.1947335,0.151437804 67.388914,0.361079545 C67.5834884,0.57072207 67.6925918,0.846006512 67.695349,1.13276114 Z" id="Path"></path>
                    <path d="M180.368435,81.5588235 L169.031915,81.5588235 C168.854672,81.5567009 168.680579,81.5120118 168.523816,81.4281219 C168.367054,81.34384 168.232349,81.2231012 168.130729,81.0753138 C168.029109,80.9275263 167.963726,80.7573944 167.939699,80.5786383 C167.916067,80.3998821 167.934185,80.2179899 167.993266,80.04825 L198.025865,1.08849156 C198.154268,0.757886796 198.379958,0.475871558 198.672214,0.28116497 C198.964469,0.0864587742 199.308716,-0.0113911561 199.65769,0.00105592736 L213.858076,0.00105592736 C214.194446,0.00400891985 214.522544,0.109059665 214.799832,0.302770157 C215.077514,0.496479474 215.292176,0.770046917 215.417429,1.08849156 L245.35983,80.04825 C245.418911,80.2179899 245.438605,80.3998821 245.411033,80.5786383 C245.387401,80.7573944 245.324381,80.9275263 245.221973,81.0753138 C245.119566,81.2231012 244.985648,81.34384 244.828098,81.4281219 C244.670548,81.5120118 244.497243,81.5567009 244.319999,81.5588235 L232.984267,81.5588235 C232.75582,81.5588235 232.53525,81.4908434 232.346189,81.3614804 C232.161068,81.2321174 232.015334,81.0482651 231.93262,80.8334442 L207.72977,15.889656 C207.651783,15.6709542 207.509594,15.482045 207.322503,15.3485267 C207.135413,15.2150084 206.912085,15.1433884 206.683638,15.1433884 C206.45519,15.1433884 206.232257,15.2150084 206.045166,15.3485267 C205.857681,15.482045 205.715492,15.6709542 205.637505,15.889656 L181.436624,80.8334442 C181.352335,81.0506172 181.204632,81.2364295 181.013602,81.3657925 C180.822967,81.4955475 180.59767,81.562581 180.368435,81.5588235 Z" id="Path"></path>
                    <path d="M325.316517,79.6280163 L302.680503,50.3802203 C315.457818,47.9368279 322.929632,39.2181544 322.929632,25.8387284 C322.929632,10.4682099 313.043362,0 295.55136,0 L263.982254,0 C263.537175,0 263.11179,0.177990538 262.800628,0.494813436 C262.485528,0.811639078 262.312223,1.24133981 262.312223,1.6893944 C262.312223,3.11560569 262.587935,4.52786144 263.127545,5.8454823 C263.667154,7.16314235 264.458843,8.36037722 265.455348,9.36885973 C266.451852,10.3773422 267.637417,11.1773151 268.937205,11.7231093 C270.240933,12.2689035 271.63919,12.5498172 273.049264,12.5498172 L294.239755,12.5498172 C304.811368,12.5498172 309.880544,18.0252822 309.880544,25.9292433 C309.880544,33.8332043 304.929531,39.504713 294.239755,39.504713 L263.982254,39.504713 C263.537175,39.5086331 263.11179,39.6901333 262.800628,40.0092287 C262.485528,40.328324 262.312223,40.759926 262.312223,41.2091684 L262.312223,80.4273228 C262.312223,80.7276017 262.426447,81.0153364 262.639139,81.2274133 C262.847893,81.4394902 263.131483,81.5586609 263.430829,81.5586609 L274.195441,81.5586609 C274.490847,81.5547408 274.774437,81.434394 274.983191,81.2231012 C275.191945,81.0118083 275.310108,80.7260337 275.314047,80.4273228 L275.314047,51.0893647 L287.736874,51.0893647 L307.375497,77.018412 C308.427144,78.4061241 309.782075,79.528446 311.333943,80.2975678 C312.885812,81.0670816 314.595231,81.4626187 316.324344,81.4532105 L324.497256,81.4532105 C324.698133,81.4418422 324.89507,81.3740247 325.064437,81.257206 C325.233803,81.1407793 325.367721,80.9796635 325.450434,80.7914992 C325.537087,80.6037269 325.568597,80.39557 325.544964,80.1905493 C325.521332,79.9855286 325.442557,79.7907001 325.316517,79.6280163 Z" id="Path"></path>
                    <path d="M144.042169,0 L94.0983863,0 C93.7029355,0 93.3236336,0.15924192 93.0439821,0.442695831 C92.7647245,0.726149742 92.6075683,1.11060087 92.6075683,1.51146541 C92.6075683,4.44981244 93.7588658,7.26780877 95.808199,9.34553519 C97.8575322,11.4232616 100.63711,12.5906118 103.535639,12.5906118 L144.042169,12.5906118 C144.189478,12.5925462 144.336,12.564596 144.472281,12.5083427 C144.608956,12.4521286 144.733026,12.3686699 144.837403,12.2630234 C144.941386,12.1573378 145.023706,12.0315813 145.079243,11.8931237 C145.134779,11.7546661 145.16235,11.6063298 145.16048,11.456896 L145.16048,1.13360004 C145.16048,0.83294869 145.042612,0.544614267 144.832677,0.332022657 C144.623135,0.11943144 144.338757,0 144.042169,0 Z M144.042169,69.0284833 L106.770537,69.0284833 C106.47513,69.0245632 106.193115,68.9042165 105.984361,68.6921396 C105.775214,68.4804547 105.656263,68.1942881 105.652325,67.8951851 L105.652325,47.4299602 C105.652325,47.1292892 105.770487,46.8407705 105.980029,46.6283016 C106.18957,46.4154407 106.473948,46.29627 106.770537,46.29627 L141.224385,46.29627 C141.520973,46.29627 141.805351,46.1767072 142.014893,45.9642383 C142.224828,45.7517694 142.342597,45.4632507 142.342597,45.1625798 L142.342597,34.7637162 C142.342597,34.4630453 142.224828,34.1747226 142.014893,33.9621361 C141.805351,33.7495496 141.520973,33.6301044 141.224385,33.6301044 L94.2772057,33.6301044 C93.8329143,33.6341029 93.4083168,33.8157991 93.0955798,34.1356785 C92.7828428,34.4555579 92.6075683,34.8876695 92.6075683,35.3380487 L92.6075683,79.8659658 C92.6075683,80.3148162 92.7832366,80.7452421 93.0963675,81.0627695 C93.4094984,81.3802968 93.8344898,81.5586609 94.2772057,81.5586609 L144.042169,81.5586609 C144.338757,81.5586609 144.623135,81.4390982 144.832677,81.2266292 C145.042612,81.0141603 145.160381,80.7256417 145.160381,80.4249707 L145.160381,70.1018041 C145.148565,69.8105414 145.025282,69.535351 144.816528,69.3346424 C144.60738,69.1343258 144.329698,69.0245632 144.042169,69.0284833 Z" id="Shape"></path>
                </g>
                <path d="M112.652558,7.15995818 L83.3041941,50.9168731 C82.8284895,51.5486269 82.6086469,52.3376996 82.688552,53.1255337 C82.7688712,53.9133678 83.1427278,54.6413297 83.7355989,55.1632492 C84.3280561,55.6855815 85.095642,55.9626447 85.8835148,55.9391088 C86.6713876,55.9159858 87.4215849,55.5935024 87.9825768,55.0373113 L116.862689,29.9706034 C117.029537,29.817207 117.23696,29.7162502 117.460114,29.680327 C117.683269,29.6444037 117.911806,29.6750417 118.117986,29.7684835 C118.323752,29.8618839 118.497639,30.013959 118.618532,30.2058387 C118.73901,30.3977597 118.801113,30.6209794 118.796558,30.8479152 L118.796558,109.635698 C118.794074,109.874774 118.719137,110.107656 118.581684,110.302962 C118.444231,110.497856 118.250471,110.646504 118.026902,110.728261 C117.80292,110.810017 117.559892,110.821166 117.329285,110.760055 C117.099092,110.699357 116.892912,110.56929 116.73807,110.387609 L29.4106325,5.42094249 C28.0165158,3.73581168 26.2723899,2.37742554 24.3005136,1.44103026 C22.3286374,0.50463497 20.176747,0.0128999989 17.9957098,0 L14.9548438,0 C10.9885688,0 7.18475385,1.58320788 4.3801669,4.40080474 C1.57559237,7.21842637 0,11.0399171 0,15.0246315 L0,125.975823 C0,129.960413 1.57559237,133.781904 4.3801669,136.599608 C7.18475385,139.417312 10.9885688,141 14.9548438,141 C17.5104414,141 20.0233126,140.341407 22.2537005,139.088222 C24.4840884,137.834625 26.3575116,136.028139 27.6952806,133.840537 L57.0435623,90.0835398 C57.5192668,89.4517861 57.7391094,88.6631262 57.6587903,87.8752921 C57.5788852,87.0874581 57.2050286,86.3590832 56.6121574,85.8371637 C56.0197003,85.3148314 55.2521143,85.0377682 54.4642415,85.0613041 C53.6763687,85.0844271 52.9261714,85.4069105 52.3651795,85.9631016 L23.4848604,111.029686 C23.3183431,111.183289 23.1106726,111.284039 22.8876006,111.319962 C22.6645287,111.355885 22.4358676,111.32533 22.2299774,111.232012 C22.0240457,111.138694 21.8499933,110.98633 21.7293076,110.794739 C21.6086633,110.602736 21.5467265,110.379351 21.5511564,110.152663 L21.5511564,31.4432502 C21.5535163,31.2040509 21.6284947,30.971293 21.7660722,30.7760274 C21.9036084,30.5807619 22.0972024,30.4323617 22.3209781,30.3506053 C22.5447539,30.2688489 22.7880298,30.2576591 23.0183056,30.3185221 C23.2485813,30.3794265 23.4548856,30.5094521 23.6096035,30.6912568 L110.937289,135.657758 C112.341632,137.327983 114.092507,138.669531 116.066536,139.589496 C118.040979,140.509462 120.191379,140.985548 122.367448,140.984309 L125.486646,140.984309 C127.450325,140.984309 129.394958,140.59576 131.209591,139.840959 C133.02381,139.085745 134.672423,137.979144 136.061033,136.583918 C137.449643,135.188692 138.55134,133.532506 139.30278,131.709917 C140.054633,129.886915 140.441324,127.933021 140.441324,125.960132 L140.441324,15.0246315 C140.441324,13.04365 140.051321,11.0822404 139.294085,9.25325145 C138.53685,7.42426247 137.426872,5.76382373 136.027912,4.36744153 C134.629365,2.97107172 132.969988,1.86635329 131.144591,1.11686214 C129.319194,0.367370162 127.364623,-0.0120998175 125.393078,0 C122.837356,0 120.324278,0.658857204 118.093973,1.91224834 C115.863668,3.16563949 113.990245,4.97235605 112.652558,7.15995818 Z" id="Path"></path>
                <g id="Group" transform="translate(190.723450, 109.205882)">
                    <path d="M4.65862692,21.2978848 L3.34126254,15.5770938 L17.8836549,0.583566639 L25.3677747,0.583566639 L4.65862692,21.2978848 Z M0,29.9916492 L0,0.583566639 L6.16611311,0.583566639 L6.16611311,29.9916492 L0,29.9916492 Z M18.6743305,29.9916492 L7.88106332,15.3926368 L12.1292583,11.6444191 L25.9824591,29.9916492 L18.6743305,29.9916492 Z" id="Shape"></path>
                    <path d="M55.6755254,30.4117647 C53.551642,30.4117647 51.5986113,30.0336608 49.8164333,29.2774529 C48.0342553,28.5212451 46.482022,27.4612194 45.1597333,26.0973758 C43.8374446,24.7335322 42.8162892,23.1261529 42.096267,21.275238 C41.3762448,19.424323 41.0162337,17.4013139 41.0162337,15.2062106 C41.0162337,12.9997291 41.3762448,10.9737661 42.096267,9.12832135 C42.8162892,7.28287665 43.8374446,5.6782325 45.1597333,4.3143889 C46.482022,2.95054531 48.0342553,1.8905196 49.8164333,1.13431176 C51.5986113,0.378103919 53.5462894,0 55.6594678,0 C57.7833512,0 59.7337056,0.378103919 61.5105311,1.13431176 C63.2873565,1.8905196 64.8369136,2.95481211 66.1592023,4.3271893 C67.481491,5.69956649 68.5026464,7.30847743 69.2226686,9.15392214 C69.9426907,10.9993668 70.3027018,13.0113261 70.3027018,15.1897998 C70.3027018,17.3787764 69.9426907,19.3987222 69.2226686,21.2496372 C68.5026464,23.1005521 67.481491,24.7121982 66.1592023,26.0845754 C64.8369136,27.4569526 63.2873565,28.5212451 61.5105311,29.2774529 C59.7337056,30.0336608 57.7887037,30.4117647 55.6755254,30.4117647 Z M55.6594678,24.4480944 C56.8759905,24.4480944 57.9919928,24.2202036 59.0074745,23.7644221 C60.0229563,23.3086406 60.9048389,22.6629319 61.6531224,21.827296 C62.4014059,20.99166 62.9833329,20.0125941 63.3989032,18.8900981 C63.8144735,17.767602 64.0222587,16.5396396 64.0222587,15.2062106 C64.0222587,13.872344 63.8144735,12.6441627 63.3989032,11.5216666 C62.9833329,10.3991706 62.4014059,9.42010467 61.6531224,8.58446875 C60.9048389,7.74883284 60.0229563,7.10312412 59.0074745,6.6473426 C57.9919928,6.19156108 56.8759905,5.96367032 55.6594678,5.96367032 C54.4429451,5.96367032 53.3269428,6.19156108 52.3114611,6.6473426 C51.2959793,7.10312412 50.4099217,7.74456604 49.6532882,8.57166836 C48.8966548,9.39877068 48.3147278,10.3735699 47.9075075,11.4960659 C47.5002871,12.6185619 47.2966769,13.8552768 47.2966769,15.2062106 C47.2966769,16.5396396 47.5002871,17.7718688 47.9075075,18.9028985 C48.3147278,20.0339281 48.8966548,21.012994 49.6532882,21.8400963 C50.4099217,22.6671987 51.2959793,23.3086406 52.3114611,23.7644221 C53.3269428,24.2202036 54.4429451,24.4480944 55.6594678,24.4480944 Z" id="Shape"></path>
                    <path d="M94.4607984,6.02705882 L93.961699,6.02705882 C90.9553413,6.02705882 88.5182069,3.58992436 88.5182069,0.583566639 L88.5182069,0.583566639 L88.5182069,0.583566639 L101.248019,0.583566639 C103.030625,0.583566639 104.648587,0.993945054 106.101906,1.81470188 C107.555225,2.63545871 108.703556,3.75029637 109.546901,5.15921485 C110.390245,6.56813333 110.811917,8.16577555 110.811917,9.95214152 C110.811917,11.7227532 110.390245,13.3269597 109.546901,14.7647611 C108.703556,16.2025625 107.5594,17.340047 106.114431,18.1772146 C104.669462,19.0143822 103.047325,19.432966 101.248019,19.432966 L94.4607984,19.432966 L94.4607984,29.9916492 L88.5182069,29.9916492 L88.5182069,14.3414055 L94.4607984,14.3414055 L100.521331,14.3414055 C102.817274,14.3414055 104.678504,12.4801756 104.678504,10.1842322 C104.678504,7.88828873 102.817274,6.02705882 100.521331,6.02705882 L94.4607984,6.02705882 L94.4607984,6.02705882 Z M104.835284,29.9916492 L97.5181628,16.7160005 L103.839713,15.6657119 L111.978983,30.01725 L104.835284,29.9916492 Z" id="Shape"></path>
                    <path d="M129.908904,0.583566639 L129.908904,0.583566639 L129.908904,0.583566639 L149.348217,0.583566639 L149.348217,6.11268003 L135.50128,6.11268003 L135.435336,6.11264842 C132.382743,6.11118553 129.908904,3.63615982 129.908904,0.583566639 Z M132.786423,17.6658553 L132.786423,12.3166039 L148.755115,12.3166039 L148.755115,17.6658553 L132.786423,17.6658553 Z M129.876873,29.9970588 L129.876873,12.3167647 L135.875606,12.3167647 L135.875606,24.4676471 L149.611644,24.4676471 L149.611644,29.9970588 L129.876873,29.9970588 Z" id="Shape"></path>
                    <path d="M165.208898,29.9916492 L176.508942,0.583566639 L181.989717,0.583566639 L193.207547,29.9916492 L186.897558,29.9916492 L181.087923,14.1578912 C180.920496,13.700578 180.722988,13.1210594 180.495398,12.4193352 C180.267809,11.7176111 180.029835,10.9781423 179.781478,10.2009287 C179.533121,9.42371504 179.301677,8.67724425 179.087148,7.96151629 C178.872619,7.24578833 178.708189,6.65051535 178.593859,6.17569735 L179.715321,6.15009656 C179.550891,6.7789569 179.36548,7.43834125 179.159086,8.12824962 C178.952693,8.81815798 178.73538,9.51758459 178.507148,10.2265294 C178.278916,10.9354743 178.044154,11.627899 177.802862,12.3038035 C177.56157,12.979708 177.331947,13.6320904 177.113992,14.2609508 L171.329407,29.9916492 L165.208898,29.9916492 Z" id="Shape"></path>
                </g>
            </g>
        </g>
    </g>
</svg>